<svg xmlns="http://www.w3.org/2000/svg" viewBox="0 0 2355.14 243.26"><defs><style>.cls-1{fill:#fff}</style></defs><g id="Layer_2" data-name="Layer 2"><g id="Text_outlines" data-name="Text outlines"><path class="cls-1" d="M266.77 67.24V176h-18.59v-49.2h-48.65V176H180.4V67.24H199v43.19h48.66V67.24zM161.26 176h-18.58V67.24h18.58zm-37.17 0h-19.68L55.76 96.21h-.55V176h-18V67.24h19.64l49.2 79.81h.55V67.24h18V176zm208.83-54.66L266.77 0H21.87A22.05 22.05 0 000 22.41v198.44a22.05 22.05 0 0021.87 22.41h244.35z"/><path class="cls-1" d="M283.17 242.72l66.69-121.36L283.17 0h16.4c9.29 0 20.23 6.56 24.6 14.76l58.49 106.6L324.17 228c-4.37 8.2-15.31 14.76-24.6 14.76zM428.15 30.88h16.5l40.75 65.75h.25V30.88h14.88v89.25H484l-40.6-65.62h-.4v65.62h-14.85zM571.15 105.76a7.54 7.54 0 00.69 3.75 2.9 2.9 0 002.69 1.12H576a9.16 9.16 0 002-.25v9.88c-.5.16-1.15.35-1.94.56s-1.61.39-2.44.56-1.67.29-2.5.38-1.54.12-2.12.12a13.68 13.68 0 01-7.25-1.75q-2.85-1.75-3.75-6.13a25.29 25.29 0 01-10.44 6 41.15 41.15 0 01-11.94 1.87 29.25 29.25 0 01-8.37-1.19 21.77 21.77 0 01-7.07-3.5 16.81 16.81 0 01-4.87-5.87 18.1 18.1 0 01-1.81-8.31 19.18 19.18 0 012.18-9.75 16.3 16.3 0 015.75-5.88 25.79 25.79 0 018-3.06 90.4 90.4 0 018.94-1.44 73.25 73.25 0 017.38-1.06 34.71 34.71 0 006.25-1.05 9.4 9.4 0 004.25-2.32 6.36 6.36 0 001.57-4.68 7.24 7.24 0 00-1.32-4.5 8.71 8.71 0 00-3.25-2.69 14 14 0 00-4.31-1.25 34.17 34.17 0 00-4.5-.31 17.85 17.85 0 00-9.87 2.5 9.72 9.72 0 00-4.38 7.75H515.9a21.46 21.46 0 013-10.38 20.63 20.63 0 016.69-6.62 27.15 27.15 0 019.19-3.5 54.34 54.34 0 0110.5-1 44 44 0 019.37 1A26.5 26.5 0 01563 58a17.94 17.94 0 015.94 5.81 15.94 15.94 0 012.25 8.69zm-14.25-18a17.36 17.36 0 01-8 2.56c-3.17.29-6.33.73-9.5 1.31a31.3 31.3 0 00-4.4 1.06 13.18 13.18 0 00-3.75 1.88 8.22 8.22 0 00-2.57 3.12 10.81 10.81 0 00-.93 4.69 6 6 0 001.37 4 10 10 0 003.31 2.56 15.18 15.18 0 004.25 1.32 26.35 26.35 0 004.19.37A23.7 23.7 0 00546 110a17.08 17.08 0 005.18-2.13 13.72 13.72 0 004.07-3.81 9.67 9.67 0 001.62-5.69zM580 55.51h10.75V36.13H605v19.38h12.9v10.62H605v34.5a36 36 0 00.18 3.88 6.76 6.76 0 00.88 2.75 4.13 4.13 0 002.06 1.68 10.05 10.05 0 003.75.57c1 0 2 0 3-.07a14.77 14.77 0 003-.43v11c-1.58.16-3.12.33-4.62.5a43.7 43.7 0 01-4.63.25 31.43 31.43 0 01-9.06-1.07 12.08 12.08 0 01-5.38-3.12 10.85 10.85 0 01-2.62-5.19 38.59 38.59 0 01-.81-7.12V66.13H580zM628.52 30.88h14.25v13.5h-14.25zm0 24.63h14.25v64.62h-14.25zM687.9 121.88a35.31 35.31 0 01-13.81-2.56 29.38 29.38 0 01-10.25-7.06 30.18 30.18 0 01-6.38-10.75 43.88 43.88 0 010-27.38 30.09 30.09 0 016.38-10.75 29.38 29.38 0 0110.25-7.06 38.53 38.53 0 0127.62 0A29.47 29.47 0 01712 63.38a30.24 30.24 0 016.38 10.75 44.07 44.07 0 010 27.38 30.32 30.32 0 01-6.38 10.75 29.47 29.47 0 01-10.25 7.06 35.31 35.31 0 01-13.85 2.56zm0-11.25a16.37 16.37 0 008.25-2 17.35 17.35 0 005.75-5.25 23 23 0 003.31-7.31 32.87 32.87 0 000-16.56 22.23 22.23 0 00-3.31-7.32 17.69 17.69 0 00-5.75-5.19 18 18 0 00-16.5 0 17.69 17.69 0 00-5.75 5.18 22 22 0 00-3.31 7.32 32.57 32.57 0 000 16.56 22.73 22.73 0 003.31 7.31 17.35 17.35 0 005.75 5.25 16.37 16.37 0 008.25 2.01zM732.4 55.51h13.5V65l.25.25a23.78 23.78 0 018.5-8.44 22.65 22.65 0 0111.62-3.06q10.62 0 16.75 5.5t6.13 16.5v44.37H774.9V79.51c-.17-5.09-1.25-8.77-3.25-11.07S766.52 65 762.27 65a15.4 15.4 0 00-6.5 1.31 14 14 0 00-4.87 3.62 17.07 17.07 0 00-3.13 5.44 19.39 19.39 0 00-1.12 6.63v38.12H732.4zM858.27 105.76a7.54 7.54 0 00.69 3.75 2.9 2.9 0 002.69 1.12h1.5a9.16 9.16 0 002-.25v9.88c-.5.16-1.15.35-1.94.56s-1.61.39-2.44.56-1.67.29-2.5.38-1.54.12-2.12.12a13.68 13.68 0 01-7.25-1.75q-2.88-1.75-3.75-6.12a25.29 25.29 0 01-10.44 6 41.15 41.15 0 01-11.94 1.87 29.25 29.25 0 01-8.37-1.19 21.87 21.87 0 01-7.07-3.5 16.81 16.81 0 01-4.87-5.87 18.1 18.1 0 01-1.81-8.31 19.29 19.29 0 012.18-9.75 16.3 16.3 0 015.75-5.88 25.89 25.89 0 018-3.06 90.4 90.4 0 018.94-1.44 73.25 73.25 0 017.38-1.06 34.71 34.71 0 006.18-1.06 9.35 9.35 0 004.25-2.32 6.32 6.32 0 001.57-4.68 7.24 7.24 0 00-1.32-4.5 8.63 8.63 0 00-3.25-2.69 14 14 0 00-4.33-1.25 34.17 34.17 0 00-4.5-.31 17.85 17.85 0 00-9.87 2.5 9.72 9.72 0 00-4.38 7.75H803a21.46 21.46 0 013-10.38 20.63 20.63 0 016.69-6.62 27.15 27.15 0 019.19-3.5 54.34 54.34 0 0110.5-1 44 44 0 019.37 1 26.41 26.41 0 018.33 3.24 17.94 17.94 0 015.92 5.82 15.94 15.94 0 012.25 8.69zm-14.27-18a17.36 17.36 0 01-8 2.56c-3.17.29-6.33.73-9.5 1.31a31.3 31.3 0 00-4.37 1.06 13.18 13.18 0 00-3.75 1.88 8.22 8.22 0 00-2.57 3.12 10.81 10.81 0 00-.93 4.69 6 6 0 001.37 4 10 10 0 003.31 2.56 15.28 15.28 0 004.25 1.32 26.44 26.44 0 004.19.37 23.7 23.7 0 005.13-.62 17.08 17.08 0 005.18-2.13 13.72 13.72 0 004.07-3.81 9.67 9.67 0 001.62-5.69zM874 30.88h14.25v89.25H874zM940.52 30.88h15.63v75.75h45.37v13.5h-61zM1010.65 30.88h14.25v13.5h-14.25zm0 24.63h14.25v64.62h-14.25zM1040.77 30.88H1055v33h.25a19.61 19.61 0 013.63-4.25 22.61 22.61 0 014.68-3.19 24.84 24.84 0 015.38-2 23.75 23.75 0 015.56-.68 30.88 30.88 0 0113.31 2.68 26.32 26.32 0 019.44 7.38 32 32 0 015.63 10.94 46.26 46.26 0 011.87 13.37 47.2 47.2 0 01-1.69 12.63 32.83 32.83 0 01-5.12 10.81 25 25 0 01-21.06 10.31 50.47 50.47 0 01-6.57-.44 24.79 24.79 0 01-6.31-1.68 22 22 0 01-5.44-3.25 16 16 0 01-4.06-5.25h-.25v8.87h-13.5zm49.75 57a32.14 32.14 0 00-1.12-8.5 23 23 0 00-3.38-7.31 17.46 17.46 0 00-5.62-5.13 15.32 15.32 0 00-7.75-1.93q-9 0-13.57 6.25t-4.56 16.62a33.14 33.14 0 001.19 9.06 20.36 20.36 0 003.56 7.19 17.79 17.79 0 005.69 4.75 16.19 16.19 0 007.69 1.75 16 16 0 008.25-2 17.37 17.37 0 005.56-5.19 20.85 20.85 0 003.12-7.25 36.51 36.51 0 00.94-8.31zM1116.77 55.51h13.37V68h.25a14.51 14.51 0 012.44-5.13 23.55 23.55 0 014.38-4.56 21.74 21.74 0 015.68-3.31 16.93 16.93 0 016.38-1.25 32.28 32.28 0 013.44.12l1.93.25v13.76c-1-.17-2-.31-3.06-.44a26.69 26.69 0 00-3.06-.18 16.46 16.46 0 00-6.81 1.43 15.76 15.76 0 00-5.57 4.25 21 21 0 00-3.75 6.94 30.24 30.24 0 00-1.37 9.5v30.75h-14.25zM1214.89 105.76a7.54 7.54 0 00.69 3.75 2.9 2.9 0 002.69 1.12h1.5a9.16 9.16 0 002-.25v9.88a41.642 41.642 0 01-4.38 1.12c-.84.17-1.66.29-2.5.38s-1.54.12-2.12.12a13.68 13.68 0 01-7.25-1.75q-2.88-1.75-3.75-6.12a25.22 25.22 0 01-10.44 6 41 41 0 01-11.94 1.87 29.3 29.3 0 01-8.37-1.19 21.71 21.71 0 01-7.06-3.5 16.73 16.73 0 01-4.88-5.87 18.1 18.1 0 01-1.81-8.31 19.18 19.18 0 012.19-9.75 16.14 16.14 0 015.75-5.88 25.69 25.69 0 018-3.06 89.73 89.73 0 018.93-1.44 73.66 73.66 0 017.38-1.06 35 35 0 006.19-1.06 9.46 9.46 0 004.25-2.32 6.36 6.36 0 001.56-4.68 7.3 7.3 0 00-1.31-4.5 8.79 8.79 0 00-3.25-2.69 14 14 0 00-4.32-1.25 34.17 34.17 0 00-4.5-.31 17.85 17.85 0 00-9.87 2.5 9.75 9.75 0 00-4.38 7.75h-14.25a21.46 21.46 0 013-10.38 20.63 20.63 0 016.69-6.62 27.15 27.15 0 019.19-3.5 54.34 54.34 0 0110.5-1 44 44 0 019.37 1 26.46 26.46 0 018.32 3.25 18 18 0 015.93 5.81 15.94 15.94 0 012.25 8.69zm-14.25-18a17.32 17.32 0 01-8 2.56q-4.74.44-9.5 1.31a31.3 31.3 0 00-4.37 1.06 13.18 13.18 0 00-3.75 1.88 8.1 8.1 0 00-2.56 3.12 10.66 10.66 0 00-.94 4.69 6 6 0 001.37 4 9.94 9.94 0 003.32 2.56 15.08 15.08 0 004.25 1.32 26.23 26.23 0 004.18.37 23.63 23.63 0 005.13-.62 17.24 17.24 0 005.19-2.13 13.8 13.8 0 004.06-3.81 9.67 9.67 0 001.62-5.69zM1230.27 55.51h13.37V68h.25a14.51 14.51 0 012.44-5.13 23.55 23.55 0 014.38-4.56 21.74 21.74 0 015.68-3.31 16.93 16.93 0 016.38-1.25 32.41 32.41 0 013.44.12l1.93.25v13.76c-1-.17-2-.31-3.06-.44a26.69 26.69 0 00-3.06-.18 16.46 16.46 0 00-6.81 1.43 15.76 15.76 0 00-5.57 4.25 21 21 0 00-3.75 6.94 30.24 30.24 0 00-1.37 9.5v30.75h-14.25z"/><path class="cls-1" d="M1267.14 55.51h15.63l16.87 48.25h.25l16.38-48.25h14.87L1306 123.63a471.95 471.95 0 01-3.44 8.38 30.25 30.25 0 01-4.12 7.06 17.89 17.89 0 01-6.07 4.87 20.61 20.61 0 01-9.25 1.82 64.81 64.81 0 01-9.87-.75V133c1.16.16 2.29.35 3.37.56a18.63 18.63 0 003.38.31 11.76 11.76 0 004.12-.62 6.86 6.86 0 002.69-1.82 11.22 11.22 0 001.81-2.81 27.6 27.6 0 001.38-3.75l1.62-5zM1403.52 121.88a35.31 35.31 0 01-13.81-2.56 29.38 29.38 0 01-10.25-7.06 30.18 30.18 0 01-6.38-10.75 43.88 43.88 0 010-27.38 30.09 30.09 0 016.38-10.75 29.38 29.38 0 0110.25-7.06 38.53 38.53 0 0127.62 0 29.47 29.47 0 0110.25 7.06 30.24 30.24 0 016.42 10.75 44.07 44.07 0 010 27.38 30.32 30.32 0 01-6.38 10.75 29.47 29.47 0 01-10.25 7.06 35.35 35.35 0 01-13.85 2.56zm0-11.25a16.42 16.42 0 008.25-2 17.35 17.35 0 005.75-5.25 23 23 0 003.31-7.31 32.87 32.87 0 000-16.56 22.23 22.23 0 00-3.31-7.32 17.69 17.69 0 00-5.75-5.18 18 18 0 00-16.5 0 17.59 17.59 0 00-5.75 5.18 22 22 0 00-3.31 7.32 32.57 32.57 0 000 16.56 22.73 22.73 0 003.31 7.31 17.25 17.25 0 005.75 5.25 16.37 16.37 0 008.25 2zM1441.64 55.51h10.63v-5.38a27.62 27.62 0 011.5-9.94 14 14 0 014-5.87 13.1 13.1 0 015.68-2.75 31.62 31.62 0 016.69-.69 40.41 40.41 0 0110 .88v11.12a19.9 19.9 0 00-2.94-.56 30.26 30.26 0 00-3.68-.19 8.66 8.66 0 00-4.94 1.38c-1.38.91-2.06 2.7-2.06 5.37v6.63h12.12v10.62h-12.12v54h-14.25v-54h-10.63zM1523.89 30.88h22l24.62 69.88h.25l24-69.88h21.75v89.25h-14.87V51.26h-.25l-24.75 68.87h-12.88L1539 51.26h-.25v68.87h-14.87zM1644.39 91.51a24.8 24.8 0 001.06 7.25 17.85 17.85 0 003.19 6.12 15.33 15.33 0 005.37 4.19 17.77 17.77 0 007.75 1.56q6.26 0 10.07-2.69a15.89 15.89 0 005.68-8.06H1691a26.68 26.68 0 01-10.5 16.31 28.31 28.31 0 01-8.68 4.25 35 35 0 01-10.07 1.44 34.18 34.18 0 01-13.5-2.5 27.91 27.91 0 01-9.93-7 29.73 29.73 0 01-6.13-10.75 43.83 43.83 0 01-2.06-13.75 38.84 38.84 0 012.19-13.06 33.28 33.28 0 016.25-10.88 29.34 29.34 0 0122.81-10.18 29.06 29.06 0 0113.69 3.18 30.14 30.14 0 0110.06 8.44 34.3 34.3 0 015.87 12.06 37.05 37.05 0 01.94 14.07zm33.25-9.38a23.13 23.13 0 00-1.44-6.5 17.34 17.34 0 00-3.25-5.44 16.07 16.07 0 00-5-3.75 14.86 14.86 0 00-6.56-1.43 17 17 0 00-6.81 1.31 15.36 15.36 0 00-5.25 3.62 18 18 0 00-3.5 5.44 18.76 18.76 0 00-1.44 6.75zM1763.64 120.13h-13.5v-8.75h-.25a16.91 16.91 0 01-8.38 8.06 28.26 28.26 0 01-11.62 2.44 30.85 30.85 0 01-13.31-2.69 26.5 26.5 0 01-9.44-7.31 31.27 31.27 0 01-5.63-10.94 47.38 47.38 0 01-1.87-13.56 43.4 43.4 0 012.36-15.12 30.33 30.33 0 016.32-10.5 24.44 24.44 0 019-6.07 28.63 28.63 0 0110.31-1.93 34 34 0 016.12.56 26.68 26.68 0 016 1.81 23.69 23.69 0 015.32 3.19 17.84 17.84 0 014.06 4.56h.25v-33h14.25zm-49.75-31.62a31.42 31.42 0 001.06 8.12 22.34 22.34 0 003.25 7.13 16.49 16.49 0 005.56 5 16.23 16.23 0 008 1.87 16 16 0 008.19-2 17 17 0 005.63-5.25 24 24 0 003.25-7.31 33.1 33.1 0 001.06-8.31q0-10.76-4.81-16.75A15.87 15.87 0 001732 65a16.06 16.06 0 00-8.43 2.06 17.32 17.32 0 00-5.63 5.37 22.21 22.21 0 00-3.12 7.5 38.87 38.87 0 00-.93 8.58zM1779.51 30.88h14.25v13.5h-14.25zm0 24.63h14.25v64.62h-14.25zM1852.89 77.13q-.89-6-4.82-9.06a15.68 15.68 0 00-9.93-3.06 20.62 20.62 0 00-5.88.93 14.1 14.1 0 00-5.75 3.5 19.58 19.58 0 00-4.37 7.13 33.84 33.84 0 00-1.75 11.94 35.29 35.29 0 00.93 8 22.09 22.09 0 003 7.12 16.3 16.3 0 005.32 5.06 15 15 0 007.87 1.94 14.32 14.32 0 0010.31-3.87q4.07-3.89 5.07-10.88h14.25q-2 12.63-9.57 19.31t-20.06 6.69a33.22 33.22 0 01-13.44-2.56 28.55 28.55 0 01-9.81-7 29.63 29.63 0 01-6.06-10.56 41.16 41.16 0 01-2.06-13.25 45.06 45.06 0 012-13.63 31.05 31.05 0 016-11.06 28.11 28.11 0 019.93-7.38 33.6 33.6 0 0113.93-2.68 39.31 39.31 0 0110.69 1.43 28.23 28.23 0 019 4.32 23 23 0 016.44 7.25 25 25 0 013 10.37zM1879.14 30.88h14.25v13.5h-14.25zm0 24.63h14.25v64.62h-14.25zM1908.89 55.51h13.5V65l.25.25a23.78 23.78 0 018.5-8.44 22.65 22.65 0 0111.62-3.06q10.62 0 16.75 5.5t6.13 16.5v44.37h-14.25V79.51c-.17-5.09-1.25-8.77-3.25-11.07S1943 65 1938.76 65a15.4 15.4 0 00-6.5 1.31 14 14 0 00-4.87 3.62 17.07 17.07 0 00-3.13 5.44 19.39 19.39 0 00-1.12 6.63v38.12h-14.25zM1991.76 91.51a24.8 24.8 0 001.06 7.25 17.85 17.85 0 003.19 6.12 15.37 15.37 0 005.38 4.19 17.74 17.74 0 007.75 1.56q6.24 0 10.06-2.69a15.9 15.9 0 005.69-8.06h13.5a26.8 26.8 0 01-10.5 16.31 28.36 28.36 0 01-8.69 4.25 34.91 34.91 0 01-10.06 1.44 34.11 34.11 0 01-13.5-2.5 27.94 27.94 0 01-9.94-7 29.73 29.73 0 01-6.13-10.75 43.83 43.83 0 01-2.06-13.75 38.84 38.84 0 012.19-13.06 33.46 33.46 0 016.3-10.88 29.34 29.34 0 0122.81-10.18 29 29 0 0113.69 3.18 30.14 30.14 0 0110.06 8.44 34.13 34.13 0 015.81 12.06 37.05 37.05 0 01.94 14.07zm33.24-9.38a23.13 23.13 0 00-1.44-6.5 17.34 17.34 0 00-3.25-5.44 16.07 16.07 0 00-5-3.75 14.82 14.82 0 00-6.56-1.43 17 17 0 00-6.81 1.31 15.55 15.55 0 00-5.25 3.62 18 18 0 00-3.5 5.44 18.76 18.76 0 00-1.44 6.75zM438.18 164.56l-9.9 47.55h28.27l-1.27 6H419.8l11.25-53.55zM475.08 179.34L467 218.11h-6.3l8-38.77zm-4.95-7l1.65-7.8h6.45l-1.65 7.8zM502 185.75a9.73 9.73 0 00-5.77-1.69 19.79 19.79 0 00-2.93.23 9.32 9.32 0 00-2.66.78 5.5 5.5 0 00-1.91 1.5A3.8 3.8 0 00488 189a3.38 3.38 0 00.86 2.33 8.89 8.89 0 002.32 1.8 25.41 25.41 0 003.3 1.53l3.72 1.47q1.95.83 3.78 1.8a17 17 0 013.27 2.21 10.15 10.15 0 012.32 2.92 8.27 8.27 0 01.9 3.94 10.2 10.2 0 01-1.42 5.51 11.57 11.57 0 01-3.68 3.72 16.13 16.13 0 01-5.06 2.06 25.85 25.85 0 01-5.66.64 28.87 28.87 0 01-6.23-.64 13.14 13.14 0 01-4.91-2.14 10.36 10.36 0 01-3.26-4 14.5 14.5 0 01-1.2-6.26h6.3a6.48 6.48 0 00.63 3.56 6.08 6.08 0 002.18 2.32 9.61 9.61 0 003.22 1.24 19.39 19.39 0 003.87.38 16.8 16.8 0 003.15-.3 9.28 9.28 0 002.85-1 6.08 6.08 0 002.06-1.83 4.77 4.77 0 00.79-2.78 3.56 3.56 0 00-.9-2.44 9.46 9.46 0 00-2.33-1.83 23.08 23.08 0 00-3.26-1.54c-1.23-.48-2.46-1-3.71-1.54s-2.57-1.05-3.79-1.65a15.48 15.48 0 01-3.3-2.14 9.48 9.48 0 01-2.33-2.88 8.22 8.22 0 01-.86-3.83 9.23 9.23 0 011.24-4.8 10.87 10.87 0 013.26-3.49 16.12 16.12 0 014.61-2.13 18.94 18.94 0 015.29-.75 22.78 22.78 0 015.33.63 13.65 13.65 0 014.68 2.1 11 11 0 013.34 3.83 11.93 11.93 0 011.28 5.74h-6.38a5.38 5.38 0 00-2.27-5.01zM538 179.34l-1.2 5.66h-7.72l-4.8 22.8c0 .45-.1.88-.15 1.28a10.18 10.18 0 00-.08 1.27 2.08 2.08 0 001.16 2.06 6 6 0 002.67.57 9.48 9.48 0 001.87-.19 17.19 17.19 0 001.8-.49l-1.12 5.85c-.75.1-1.5.19-2.25.26a21.2 21.2 0 01-2.25.12 20 20 0 01-3.38-.27 7.61 7.61 0 01-2.74-1 5.52 5.52 0 01-1.87-1.91 5.93 5.93 0 01-.71-3.08 9.92 9.92 0 01.11-1.57c.07-.5.16-1.05.26-1.65l5.1-24.05h-6.52l1.2-5.62h6.52l2.4-11.48h6.38l-2.4 11.48zM544.45 204a9.19 9.19 0 00.83 4 8 8 0 002.25 2.93 10.79 10.79 0 003.22 1.8 11.28 11.28 0 003.75.64 12.12 12.12 0 007-1.92 11.25 11.25 0 004.13-5.51H572a16.72 16.72 0 01-2.4 5.66 15.16 15.16 0 01-4 4 17.5 17.5 0 01-5.18 2.44 21.47 21.47 0 01-6 .83 19.1 19.1 0 01-8-1.47 13.82 13.82 0 01-5.06-3.75 13.3 13.3 0 01-2.62-5 19.63 19.63 0 01-.75-5.29 30.46 30.46 0 011.61-10.16 25.1 25.1 0 014.35-7.91 19.42 19.42 0 016.37-5.1 17 17 0 017.62-1.8q8.55 0 12.48 4.5t3.94 12.67a17.34 17.34 0 01-.22 2.85c-.15.9-.28 1.63-.38 2.18h-29.08a24.88 24.88 0 00-.23 3.41zm23.36-13a9.17 9.17 0 00-1.5-3.53 7.9 7.9 0 00-2.88-2.47 9.45 9.45 0 00-4.43-.94 13.78 13.78 0 00-5 .86 12.5 12.5 0 00-3.86 2.37 14.06 14.06 0 00-2.78 3.48 20.68 20.68 0 00-1.79 4.24h22.5a14.2 14.2 0 00-.26-4.01zM591.32 179.34l-1.87 8.32h.15a21.18 21.18 0 015.74-6.6 13.49 13.49 0 018.36-2.62 7.87 7.87 0 001.12-.08 3 3 0 011.13.08l-1.5 6.82a4.6 4.6 0 00-1-.07h-2.9a9.73 9.73 0 00-1.87.34 12.38 12.38 0 00-4.69 2.33 16.56 16.56 0 00-3.56 4 15.72 15.72 0 00-2 4.39c-.5 1.67-.9 3.24-1.2 4.69l-3.67 17.17h-6.3l8-38.77zM642.4 164.56l-4.88 23h28.05l4.8-23h7.13l-11.25 53.55h-7.13l5.18-24.52h-28l-5.18 24.52H624l11.25-53.55zM691.67 179.34l-8.1 38.77h-6.3l8-38.77zm-4.95-7l1.65-7.8h6.45l-1.65 7.8zM711.47 164.56l-11.25 53.55h-6.3l11.18-53.55zM728.12 164.56l-11.25 53.55h-6.3l11.18-53.55zM767.87 164.56L787 208.89h.15l8.93-44.33H803l-11.33 53.55H784l-19-44h-.15l-9.08 44h-6.9l11.33-53.55zM808.48 185.45a14.24 14.24 0 013.79-3.94 15.83 15.83 0 015.1-2.32 23.15 23.15 0 015.92-.75 31.06 31.06 0 015.4.45 13.69 13.69 0 014.5 1.57 8.66 8.66 0 013.12 3 9.22 9.22 0 011.16 4.84 17.3 17.3 0 01-.41 3.56c-.28 1.27-.54 2.44-.79 3.49L833.79 206q-.22 1.2-.63 2.7a10.58 10.58 0 00-.42 2.85 2.64 2.64 0 00.53 1.88 1.82 1.82 0 001.35.52 3.07 3.07 0 001-.19l1-.33-1 4.72a12.51 12.51 0 01-1.91.56 9.06 9.06 0 01-2 .27 5.23 5.23 0 01-4-1.43 4.69 4.69 0 01-1-4l-.15-.15a13.35 13.35 0 01-5 4.12 18.69 18.69 0 01-8 1.43 17.8 17.8 0 01-4.61-.57 9.06 9.06 0 01-6.23-5.25 12.26 12.26 0 01-.94-5.06 10.77 10.77 0 011.84-6.67 11.63 11.63 0 014.69-3.64 23.14 23.14 0 016.3-1.69q3.45-.45 6.67-.75c1.7-.15 3.17-.31 4.39-.49a9.83 9.83 0 003-.86 3.77 3.77 0 001.76-1.72 6.92 6.92 0 00.56-3.08 4.07 4.07 0 00-.75-2.55 5.39 5.39 0 00-1.87-1.54 8.88 8.88 0 00-2.51-.78 16.81 16.81 0 00-2.67-.23 17.09 17.09 0 00-3.56.38 10.38 10.38 0 00-3.19 1.23 8.35 8.35 0 00-2.4 2.18 7.13 7.13 0 00-1.27 3.19h-6.38a13.59 13.59 0 012.09-5.6zm1.8 26.59a8.89 8.89 0 004.84 1.35q7.57 0 10.87-5.1a12.57 12.57 0 002.14-4.73q.57-2.55 1.24-5.25h-.15a8.76 8.76 0 01-3.41 1.39c-1.38.27-2.84.49-4.39.64s-3.11.33-4.69.56a18.24 18.24 0 00-4.24 1.09 7.84 7.84 0 00-3.07 2.13 6 6 0 00-1.28 3.87 4.49 4.49 0 002.14 4.01zM865.74 179.34l-1.2 5.62h-7.72l-4.8 22.8c0 .45-.1.88-.15 1.28a10.18 10.18 0 00-.08 1.27 2.07 2.07 0 001.17 2.06 6 6 0 002.66.57 9.48 9.48 0 001.87-.19 17.19 17.19 0 001.8-.49l-1.12 5.85c-.75.1-1.5.19-2.25.26a21.2 21.2 0 01-2.25.12 20 20 0 01-3.38-.27 7.49 7.49 0 01-2.73-1 5.54 5.54 0 01-1.88-1.91 6 6 0 01-.71-3.08 11.27 11.27 0 01.11-1.57c.08-.5.16-1.05.26-1.65l5.1-24.08h-6.52l1.2-5.62h6.52l2.4-11.48h6.38L858 179.34zM879.17 179.34l-8.1 38.77h-6.3l8-38.77zm-4.95-7l1.65-7.8h6.45l-1.65 7.8zM884.45 193.66a23.64 23.64 0 014.28-7.8 21.21 21.21 0 016.82-5.4 20 20 0 019.12-2q7.88 0 12 4.08t4.12 12a29.66 29.66 0 01-1.42 9.15 23.82 23.82 0 01-4.2 7.83 20.66 20.66 0 01-6.75 5.44 19.74 19.74 0 01-9.08 2 18.72 18.72 0 01-6.86-1.2 14.21 14.21 0 01-8.36-8.44 18.17 18.17 0 01-1.13-6.49 29.11 29.11 0 011.46-9.17zm7.62 16.8q2.7 2.92 7.95 2.93a10.75 10.75 0 006.18-1.8 16.48 16.48 0 004.5-4.54 21.36 21.36 0 002.78-6 22 22 0 00.94-6.08 14.94 14.94 0 00-.6-4.27 8.95 8.95 0 00-5.07-5.82 11 11 0 00-4.53-.86 11.59 11.59 0 00-6.45 1.8 16.35 16.35 0 00-4.65 4.54 20.63 20.63 0 00-2.82 6 23.23 23.23 0 00-.93 6.3 10.93 10.93 0 002.7 7.8zM938.72 179.34l-1.2 5.85h.15a15.11 15.11 0 016.07-5.07 18.39 18.39 0 017.73-1.68c3.64 0 6.36.8 8.13 2.4s2.67 4.12 2.67 7.57a25.11 25.11 0 01-.3 3.3c-.2 1.35-.48 2.78-.83 4.28l-4.72 22.12H950l5-22.65c0-.4.12-.86.23-1.39s.19-1.07.3-1.65.18-1.12.26-1.65a10.28 10.28 0 00.11-1.31 4.59 4.59 0 00-1.95-4.09 8.44 8.44 0 00-4.8-1.31 11.67 11.67 0 00-5.21 1.28 14.73 14.73 0 00-4.39 3.22 10.53 10.53 0 00-2.7 3.64 25.89 25.89 0 00-1.57 4.46l-4.5 21.45h-6.3l8.09-38.77zM972.43 185.45a14.1 14.1 0 013.79-3.94 15.77 15.77 0 015.09-2.32 23.28 23.28 0 015.93-.75 31.06 31.06 0 015.4.45 13.69 13.69 0 014.5 1.57 8.55 8.55 0 013.11 3 9.13 9.13 0 011.17 4.84 16.68 16.68 0 01-.42 3.56c-.27 1.27-.53 2.44-.78 3.49L997.74 206c-.15.8-.36 1.7-.64 2.7a11 11 0 00-.41 2.85 2.59 2.59 0 00.53 1.88 1.79 1.79 0 001.34.52 3.13 3.13 0 001-.19l1-.33-1 4.72a12.68 12.68 0 01-1.92.56 8.91 8.91 0 01-2 .27 5.22 5.22 0 01-4-1.43 4.69 4.69 0 01-1-4l-.15-.15a13.42 13.42 0 01-5 4.12 18.71 18.71 0 01-8 1.43 17.91 17.91 0 01-4.61-.57 9.5 9.5 0 01-3.71-1.87 9.3 9.3 0 01-2.51-3.38 12.1 12.1 0 01-.94-5.06 10.71 10.71 0 011.84-6.67 11.53 11.53 0 014.68-3.64 23.21 23.21 0 016.31-1.69c2.29-.3 4.52-.55 6.67-.75 1.7-.15 3.16-.31 4.39-.49a10 10 0 003-.86 3.86 3.86 0 001.76-1.72 7.06 7.06 0 00.56-3.08 4.07 4.07 0 00-.75-2.55 5.39 5.39 0 00-1.87-1.54 8.85 8.85 0 00-2.52-.78 16.59 16.59 0 00-2.66-.23 17 17 0 00-3.56.38 10.28 10.28 0 00-3.19 1.23 8.35 8.35 0 00-2.4 2.18 7.14 7.14 0 00-1.28 3.19h-6.37a13.45 13.45 0 012.1-5.6zm1.8 26.59a8.85 8.85 0 004.83 1.35q7.58 0 10.88-5.1a12.73 12.73 0 002.14-4.73c.37-1.7.79-3.45 1.23-5.25h-.14a8.74 8.74 0 01-3.42 1.39c-1.37.27-2.84.49-4.38.64s-3.12.33-4.69.56a18.11 18.11 0 00-4.24 1.09 7.77 7.77 0 00-3.07 2.13 6 6 0 00-1.28 3.87 4.47 4.47 0 002.14 4.01zM1022.64 164.56l-11.25 53.55h-6.3l11.18-53.55zM1084.48 214.17q-5.89 5.15-15.79 5.14-11 0-17-6.11t-6-17.29a37.86 37.86 0 012-12.41 32.13 32.13 0 015.82-10.39 27.51 27.51 0 0121.56-9.82 26.66 26.66 0 018.06 1.16 18.43 18.43 0 016.45 3.45 15.87 15.87 0 014.31 5.77 19.64 19.64 0 011.58 8.14h-7.13q0-6.3-3.71-9.41a14.34 14.34 0 00-9.56-3.11 19.47 19.47 0 00-9.79 2.36 22.07 22.07 0 00-6.94 6.11 26.89 26.89 0 00-4.16 8.51 34.16 34.16 0 00-1.39 9.64 24.58 24.58 0 001 7.13 15.14 15.14 0 002.92 5.51 13.23 13.23 0 004.92 3.56 17.62 17.62 0 007 1.28q6.6 0 10.72-3.49a19 19 0 005.85-9.86h7.13q-1.97 8.96-7.85 14.13zM1104.16 204a9.33 9.33 0 00.83 4 8.21 8.21 0 002.25 2.93 10.91 10.91 0 003.22 1.8 11.28 11.28 0 003.75.64 12.12 12.12 0 007-1.92 11.25 11.25 0 004.13-5.51h6.37a16.72 16.72 0 01-2.4 5.66 15.16 15.16 0 01-4 4 17.5 17.5 0 01-5.18 2.44 21.47 21.47 0 01-6 .83 19.1 19.1 0 01-8-1.47 13.82 13.82 0 01-5.06-3.75 13.45 13.45 0 01-2.62-5 20 20 0 01-.75-5.29 30.46 30.46 0 011.61-10.16 25.1 25.1 0 014.35-7.91 19.42 19.42 0 016.37-5.1 17 17 0 017.62-1.8q8.55 0 12.48 4.5t3.94 12.67a17.34 17.34 0 01-.22 2.85c-.15.9-.28 1.63-.38 2.18h-29.17a24.88 24.88 0 00-.14 3.41zm23.36-13a9.17 9.17 0 00-1.5-3.53 7.9 7.9 0 00-2.88-2.47 9.45 9.45 0 00-4.43-.94 13.78 13.78 0 00-5 .86 12.5 12.5 0 00-3.86 2.37 14 14 0 00-2.77 3.48 20.71 20.71 0 00-1.8 4.24h22.5a14.2 14.2 0 00-.26-4.01zM1151.26 179.34l-1.2 5.85h.15a15.14 15.14 0 016.08-5.07 18.31 18.31 0 017.72-1.68q5.48 0 8.14 2.4t2.66 7.57a23.49 23.49 0 01-.3 3.3c-.2 1.35-.47 2.78-.82 4.28l-4.69 22.12h-6.37l5-22.65c0-.4.12-.86.22-1.39s.2-1.07.3-1.65.19-1.12.26-1.65a8.91 8.91 0 00.12-1.31 4.59 4.59 0 00-2-4.09 8.46 8.46 0 00-4.8-1.31 11.71 11.71 0 00-5.22 1.28 14.81 14.81 0 00-4.38 3.22 10.41 10.41 0 00-2.7 3.64 26.79 26.79 0 00-1.58 4.46l-4.5 21.45H1137l8.1-38.77zM1203.31 179.34l-1.2 5.62h-7.72l-4.8 22.8c0 .45-.1.88-.15 1.28a10.18 10.18 0 00-.08 1.27 2.08 2.08 0 001.16 2.06 6 6 0 002.67.57 9.48 9.48 0 001.87-.19 17.19 17.19 0 001.8-.49l-1.12 5.85c-.75.1-1.5.19-2.25.26a21.2 21.2 0 01-2.25.12 20 20 0 01-3.38-.27 7.61 7.61 0 01-2.74-1 5.52 5.52 0 01-1.87-1.91 5.93 5.93 0 01-.71-3.08 9.92 9.92 0 01.11-1.57c.07-.5.16-1.05.26-1.65L1188 185h-6.52l1.2-5.62h6.52l2.4-11.48h6.4l-2.4 11.48zM1209.76 204a9.19 9.19 0 00.83 4 8.21 8.21 0 002.25 2.93 10.79 10.79 0 003.22 1.8 11.28 11.28 0 003.75.64 12.12 12.12 0 007-1.92A11.17 11.17 0 001231 206h6.38a16.72 16.72 0 01-2.4 5.66 15.2 15.2 0 01-4 4 17.44 17.44 0 01-5.17 2.44 21.47 21.47 0 01-6 .83 19.1 19.1 0 01-8-1.47 13.82 13.82 0 01-5.06-3.75 13.3 13.3 0 01-2.62-5 20 20 0 01-.75-5.29 30.46 30.46 0 011.61-10.16 25.1 25.1 0 014.35-7.91 19.42 19.42 0 016.37-5.1 17 17 0 017.62-1.8q8.55 0 12.48 4.5t3.94 12.67a18.51 18.51 0 01-.22 2.85c-.15.9-.28 1.63-.38 2.18H1210a26.62 26.62 0 00-.24 3.35zm23.36-13a9.17 9.17 0 00-1.5-3.53 7.93 7.93 0 00-2.89-2.47 9.38 9.38 0 00-4.42-.94 13.78 13.78 0 00-5 .86 12.5 12.5 0 00-3.86 2.37 14.06 14.06 0 00-2.78 3.48 20.68 20.68 0 00-1.79 4.24h22.5a14.58 14.58 0 00-.26-4.01zM1256.63 179.34l-1.87 8.32h.15a21.18 21.18 0 015.74-6.6 13.49 13.49 0 018.36-2.62 7.87 7.87 0 001.12-.08 3 3 0 011.13.08l-1.5 6.82a4.6 4.6 0 00-1-.07h-2.9a9.73 9.73 0 00-1.87.34 12.38 12.38 0 00-4.69 2.33 16.56 16.56 0 00-3.56 4 15.72 15.72 0 00-2 4.39c-.5 1.67-.9 3.24-1.2 4.69l-3.67 17.17h-6.3l8-38.77zM1291.06 185l1.12-5.62h6.6c.5-2 1-3.85 1.39-5.7a18.7 18.7 0 011.84-4.92 9.43 9.43 0 013.34-3.45 11.43 11.43 0 016-1.31c.9 0 1.8 0 2.7.11a13.47 13.47 0 012.62.49l-1.05 5.4c-.55-.1-1.07-.19-1.57-.26a9 9 0 00-1.43-.11 6.35 6.35 0 00-3.6.86 5.82 5.82 0 00-2 2.25 11.28 11.28 0 00-1 3.11c-.23 1.15-.52 2.33-.87 3.53h7.43l-1 5.62H1304l-7.13 33.15h-6.37l7.2-33.15zM1313.67 193.66a23.64 23.64 0 014.28-7.8 21.21 21.21 0 016.82-5.4 19.92 19.92 0 019.11-2q7.88 0 12 4.08t4.13 12a29.67 29.67 0 01-1.43 9.15 23.82 23.82 0 01-4.2 7.83 20.66 20.66 0 01-6.75 5.44 19.69 19.69 0 01-9.07 2 18.72 18.72 0 01-6.86-1.2 14.26 14.26 0 01-8.37-8.44 18.17 18.17 0 01-1.12-6.49 29.11 29.11 0 011.46-9.17zm7.61 16.8q2.7 2.92 8 2.93a10.8 10.8 0 006.19-1.8 16.76 16.76 0 004.5-4.54 21.64 21.64 0 002.78-6 22 22 0 00.93-6.08 14.94 14.94 0 00-.6-4.27 8.9 8.9 0 00-5.06-5.82 11 11 0 00-4.54-.86 11.59 11.59 0 00-6.45 1.8 16.35 16.35 0 00-4.65 4.54 20.36 20.36 0 00-2.81 6 22.87 22.87 0 00-.94 6.3 10.93 10.93 0 002.65 7.8zM1367.71 179.34l-1.88 8.32h.15a21.18 21.18 0 015.74-6.6 13.49 13.49 0 018.36-2.62 8 8 0 001.13-.08 2.9 2.9 0 011.12.08l-1.5 6.82a4.49 4.49 0 00-1-.07h-2.9a9.82 9.82 0 00-1.88.34 12.38 12.38 0 00-4.69 2.33 16.56 16.56 0 00-3.56 4 15.71 15.71 0 00-2 4.39c-.5 1.67-.9 3.24-1.2 4.69l-3.6 17.17h-6.3l8-38.77zM1433 164.56q7.88 0 11.4 3.38t3.53 9.45a14.08 14.08 0 01-2.74 8.28 12.49 12.49 0 01-3.19 3 10.55 10.55 0 01-4.27 1.62v.15a10.83 10.83 0 015.85 3.93 11.59 11.59 0 012.17 7.17 15.94 15.94 0 01-1.46 6.9 15.23 15.23 0 01-4 5.21 19.06 19.06 0 01-6 3.3 23.21 23.21 0 01-7.42 1.16h-26.48l11.18-53.55zm-7.35 47.55a31.91 31.91 0 003.53-.26 12.71 12.71 0 004.27-1.35 10.58 10.58 0 003.64-3.19 9.62 9.62 0 001.54-5.77 8.29 8.29 0 00-.9-4.13 6.12 6.12 0 00-2.44-2.4 10.84 10.84 0 00-3.53-1.12 27.79 27.79 0 00-4.16-.3h-15.3l-3.9 18.52zm3.75-24.52q11.4 0 11.4-10.2a6.17 6.17 0 00-1-3.75 6.31 6.31 0 00-2.59-2 11.47 11.47 0 00-3.41-.86 33.17 33.17 0 00-3.49-.19h-13.2l-3.6 17zM1465.28 179.34l-8.1 38.77h-6.3l8-38.77zm-5-7l1.65-7.8h6.45l-1.65 7.8zM1470.57 193.66a23.62 23.62 0 014.27-7.8 21.24 21.24 0 016.83-5.4 19.92 19.92 0 019.11-2q7.88 0 12 4.08t4.12 12a29.66 29.66 0 01-1.42 9.15 23.82 23.82 0 01-4.2 7.83 20.66 20.66 0 01-6.75 5.44 19.74 19.74 0 01-9.08 2 18.76 18.76 0 01-6.86-1.2 14.21 14.21 0 01-8.36-8.44 18.17 18.17 0 01-1.13-6.49 28.83 28.83 0 011.47-9.17zm7.61 16.8q2.7 2.92 8 2.93a10.8 10.8 0 006.19-1.8 16.76 16.76 0 004.5-4.54 21.33 21.33 0 002.77-6 21.66 21.66 0 00.94-6.08 14.94 14.94 0 00-.6-4.27 9 9 0 00-5.06-5.82 11.08 11.08 0 00-4.54-.86 11.59 11.59 0 00-6.45 1.8 16.35 16.35 0 00-4.65 4.54 20.36 20.36 0 00-2.81 6 22.87 22.87 0 00-.94 6.3 10.93 10.93 0 002.65 7.8zM1524.68 179.34l-1.43 5.77.15.15a18.49 18.49 0 016-5 15.93 15.93 0 017.53-1.83 12 12 0 016.3 1.57 7.83 7.83 0 013.45 5.4 16.69 16.69 0 015.82-5.06 15.48 15.48 0 017.46-1.91 16.53 16.53 0 014 .48 11.45 11.45 0 013.49 1.5 7.37 7.37 0 012.44 2.67 8.36 8.36 0 01.9 4 23.25 23.25 0 01-.38 3.9c-.25 1.45-.5 2.72-.75 3.82l-4.87 23.25h-6.38l5.4-24.6c.15-.6.29-1.31.42-2.14a14.71 14.71 0 00.18-2.06 4.82 4.82 0 00-1.68-3.75 6.16 6.16 0 00-4.24-1.5 8.88 8.88 0 00-2.74.45 15.31 15.31 0 00-2.66 1.16 15 15 0 00-4.35 3.72 11 11 0 00-2.33 4 43.53 43.53 0 00-1.27 4.73l-4.28 20h-6.37l4.65-22.12c.35-1.5.64-2.9.86-4.2a18.51 18.51 0 00.34-2.63 5 5 0 00-1.39-3.75 5.51 5.51 0 00-4-1.35 10.28 10.28 0 00-5.21 1.5 17.17 17.17 0 00-4.32 3.45 10.93 10.93 0 00-2.77 3.94 33.21 33.21 0 00-1.35 4.84l-4.35 20.32h-6.3l8.17-38.77zM1581.9 204a9.33 9.33 0 00.83 4 8.21 8.21 0 002.27 3 10.91 10.91 0 003.22 1.8 11.28 11.28 0 003.75.64 12.12 12.12 0 007-1.92 11.25 11.25 0 004.13-5.51h6.37a16.72 16.72 0 01-2.4 5.66 15.16 15.16 0 01-4 4 17.5 17.5 0 01-5.18 2.44 21.47 21.47 0 01-6 .83 19 19 0 01-8-1.47 13.77 13.77 0 01-5.07-3.75 13.45 13.45 0 01-2.62-5 20 20 0 01-.75-5.29 30.46 30.46 0 011.61-10.16 25.3 25.3 0 014.35-7.91 19.35 19.35 0 016.38-5.1 16.93 16.93 0 017.61-1.8q8.55 0 12.49 4.5t3.93 12.67a17.34 17.34 0 01-.22 2.85c-.15.9-.28 1.63-.38 2.18h-29.17a24.88 24.88 0 00-.15 3.34zm23.37-13a9.48 9.48 0 00-1.5-3.53 8 8 0 00-2.89-2.47 9.45 9.45 0 00-4.43-.94 13.69 13.69 0 00-5 .86 12.43 12.43 0 00-3.87 2.37 14 14 0 00-2.77 3.48A20.71 20.71 0 001583 195h22.5a14.57 14.57 0 00-.23-4zM1643.18 218.11l1.35-5.55h-.15a15.33 15.33 0 01-5.89 5.06 17.28 17.28 0 01-6.94 1.32 17 17 0 01-6.52-1.17 13.53 13.53 0 01-4.8-3.22 13.3 13.3 0 01-2.93-5 20.3 20.3 0 01-1-6.45 27.54 27.54 0 011.46-8.81 26.33 26.33 0 014.2-7.91 21.55 21.55 0 016.75-5.74 18.48 18.48 0 019.11-2.21 21.23 21.23 0 013.68.33 14.49 14.49 0 013.56 1.13 9.84 9.84 0 013 2.1 7.91 7.91 0 011.88 3.26h.15l4.12-20.7h6.3l-11.32 53.55zm-18.12-7.5q2.37 2.77 7.62 2.78a11.48 11.48 0 006.45-1.88 16.85 16.85 0 004.76-4.72 22.77 22.77 0 002.92-6.27 22.4 22.4 0 001-6.41 10.47 10.47 0 00-2.52-7.2q-2.5-2.85-7.23-2.85a12.49 12.49 0 00-6.68 1.76 16.35 16.35 0 00-4.8 4.54 20.5 20.5 0 00-2.92 6.15 23.73 23.73 0 00-1 6.6 11.21 11.21 0 002.4 7.5zM1673.63 179.34l-8.1 38.77h-6.3l8-38.77zm-5-7l1.65-7.8h6.45l-1.65 7.8zM1705.2 186.05a8.54 8.54 0 00-6-2 12.6 12.6 0 00-6.49 1.65 15.46 15.46 0 00-4.71 4.3 19.2 19.2 0 00-2.89 5.88 22.41 22.41 0 00-1 6.42 18.44 18.44 0 00.49 4.27 9.61 9.61 0 001.61 3.53 8 8 0 003 2.4 10.21 10.21 0 004.53.9 11.49 11.49 0 007-2.18 12.47 12.47 0 004.28-5.77h6.37a17.68 17.68 0 01-6.3 10.05 18.39 18.39 0 01-11.4 3.45q-8 0-12-4.35t-4-12.3a28.61 28.61 0 011.39-8.93 23.07 23.07 0 014.12-7.61 19.9 19.9 0 0115.94-7.31q6.6 0 10.46 3.18t4.09 10h-6.38a7.18 7.18 0 00-2.11-5.58zM1722.41 185.45a14.1 14.1 0 013.79-3.94 15.83 15.83 0 015.1-2.32 23.15 23.15 0 015.92-.75 31.06 31.06 0 015.4.45 13.69 13.69 0 014.5 1.57 8.66 8.66 0 013.12 3 9.22 9.22 0 011.16 4.84 17.3 17.3 0 01-.41 3.56c-.28 1.27-.54 2.44-.79 3.49l-2.48 10.65q-.23 1.2-.63 2.7a10.58 10.58 0 00-.42 2.85 2.64 2.64 0 00.53 1.88 1.82 1.82 0 001.35.52 3.07 3.07 0 001-.19l1-.33-1 4.72a12.51 12.51 0 01-1.91.56 9.06 9.06 0 01-2 .27 5.23 5.23 0 01-4-1.43 4.69 4.69 0 01-1-4l-.15-.15a13.35 13.35 0 01-5 4.12 18.69 18.69 0 01-8 1.43 17.8 17.8 0 01-4.61-.57 9.06 9.06 0 01-6.23-5.25 12.26 12.26 0 01-.94-5.06 10.77 10.77 0 011.84-6.67 11.63 11.63 0 014.69-3.64 23.14 23.14 0 016.3-1.69q3.45-.45 6.67-.75c1.7-.15 3.16-.31 4.39-.49a9.83 9.83 0 003-.86 3.77 3.77 0 001.76-1.72 6.92 6.92 0 00.56-3.08 4.07 4.07 0 00-.75-2.55 5.39 5.39 0 00-1.87-1.54 8.88 8.88 0 00-2.51-.78 16.81 16.81 0 00-2.67-.23 17.09 17.09 0 00-3.56.38 10.38 10.38 0 00-3.19 1.23 8.35 8.35 0 00-2.4 2.18 7.13 7.13 0 00-1.27 3.19h-6.38a13.59 13.59 0 012.09-5.6zm1.8 26.59a8.89 8.89 0 004.84 1.35q7.58 0 10.87-5.1a12.57 12.57 0 002.14-4.73q.57-2.55 1.24-5.25h-.15a8.76 8.76 0 01-3.41 1.39c-1.38.27-2.84.49-4.39.64s-3.11.33-4.69.56a18.24 18.24 0 00-4.24 1.09 7.84 7.84 0 00-3.07 2.13 6 6 0 00-1.28 3.87 4.49 4.49 0 002.14 4.01zM1772.62 164.56l-11.25 53.55h-6.3l11.18-53.55zM1834.46 214.17q-5.89 5.15-15.79 5.14-11 0-17-6.11t-6-17.29a37.86 37.86 0 012-12.41 32.11 32.11 0 015.81-10.39 27.51 27.51 0 0121.56-9.82 26.66 26.66 0 018.06 1.16 18.35 18.35 0 016.45 3.45 15.89 15.89 0 014.32 5.77 19.64 19.64 0 011.57 8.14h-7.12q0-6.3-3.72-9.41a14.34 14.34 0 00-9.56-3.11 19.47 19.47 0 00-9.79 2.36 22 22 0 00-6.93 6.11 26.91 26.91 0 00-4.17 8.51 34.51 34.51 0 00-1.38 9.64 24.59 24.59 0 001 7.13 15.16 15.16 0 002.93 5.51 13.19 13.19 0 004.91 3.56 17.62 17.62 0 007 1.28q6.6 0 10.73-3.49a19 19 0 005.85-9.86h7.12q-1.96 8.96-7.85 14.13zM1849.76 193.66a23.62 23.62 0 014.27-7.8 21.24 21.24 0 016.83-5.4 19.92 19.92 0 019.11-2q7.88 0 12 4.08t4.13 12a29.67 29.67 0 01-1.43 9.15 23.82 23.82 0 01-4.2 7.83 20.66 20.66 0 01-6.75 5.44 19.74 19.74 0 01-9.08 2 18.8 18.8 0 01-6.86-1.2 14.21 14.21 0 01-8.36-8.44 18.17 18.17 0 01-1.12-6.49 28.83 28.83 0 011.46-9.17zm7.61 16.8q2.7 2.92 8 2.93a10.8 10.8 0 006.19-1.8 16.76 16.76 0 004.5-4.54 21.33 21.33 0 002.77-6 21.66 21.66 0 00.94-6.08 14.94 14.94 0 00-.6-4.27 9 9 0 00-5.06-5.82 11.08 11.08 0 00-4.54-.86 11.59 11.59 0 00-6.45 1.8 16.35 16.35 0 00-4.65 4.54 20.36 20.36 0 00-2.81 6 22.87 22.87 0 00-.94 6.3 10.93 10.93 0 002.65 7.8zM1903.87 179.34l-1.43 5.77.15.15a18.49 18.49 0 016-5 15.93 15.93 0 017.53-1.83 12 12 0 016.3 1.57 7.83 7.83 0 013.45 5.4 16.69 16.69 0 015.82-5.06 15.48 15.48 0 017.46-1.91 16.53 16.53 0 014 .48 11.45 11.45 0 013.49 1.5 7.37 7.37 0 012.44 2.67 8.36 8.36 0 01.9 4 23.25 23.25 0 01-.38 3.9c-.25 1.45-.5 2.72-.75 3.82l-4.87 23.25h-6.38l5.4-24.6c.15-.6.29-1.31.42-2.14a14.71 14.71 0 00.18-2.06 4.82 4.82 0 00-1.68-3.75 6.16 6.16 0 00-4.24-1.5 8.88 8.88 0 00-2.74.45 15.31 15.31 0 00-2.66 1.16 15 15 0 00-4.35 3.72 11 11 0 00-2.33 4 43.53 43.53 0 00-1.27 4.73l-4.28 20h-6.37l4.65-22.12c.35-1.5.64-2.9.86-4.2a18.51 18.51 0 00.34-2.63 5 5 0 00-1.39-3.75 5.51 5.51 0 00-4-1.35 10.28 10.28 0 00-5.21 1.5 17.17 17.17 0 00-4.32 3.45 10.93 10.93 0 00-2.77 3.94 33.21 33.21 0 00-1.35 4.84l-4.35 20.32h-6.3l8.17-38.77zM1967.77 179.34l-1.43 5.77.15.15a18.49 18.49 0 016-5 15.93 15.93 0 017.53-1.83 12 12 0 016.3 1.57 7.83 7.83 0 013.45 5.4 16.69 16.69 0 015.82-5.06 15.48 15.48 0 017.46-1.91 16.53 16.53 0 014 .48 11.45 11.45 0 013.49 1.5 7.37 7.37 0 012.44 2.67 8.36 8.36 0 01.9 4 23.25 23.25 0 01-.38 3.9c-.25 1.45-.5 2.72-.75 3.82l-4.87 23.25h-6.38l5.4-24.6c.15-.6.29-1.31.42-2.14a14.71 14.71 0 00.18-2.06 4.82 4.82 0 00-1.68-3.75 6.16 6.16 0 00-4.24-1.5 8.88 8.88 0 00-2.74.45 15 15 0 00-2.66 1.16 15 15 0 00-4.35 3.72 11 11 0 00-2.33 4 43.53 43.53 0 00-1.27 4.73l-4.28 20h-6.37l4.65-22.12c.35-1.5.64-2.9.86-4.2a18.51 18.51 0 00.34-2.63 5 5 0 00-1.39-3.75 5.51 5.51 0 00-4-1.35 10.28 10.28 0 00-5.21 1.5 17.17 17.17 0 00-4.32 3.45 10.93 10.93 0 00-2.77 3.94 33.21 33.21 0 00-1.35 4.84l-4.39 20.37h-6.3l8.17-38.77zM2042.54 218.11l1.2-5.85h-.15a14.78 14.78 0 01-6.07 5 18.67 18.67 0 01-7.73 1.65q-5.47 0-8.14-2.37T2019 209a23.49 23.49 0 01.3-3.3c.2-1.35.48-2.78.83-4.28l4.72-22.12h6.38l-5 22.65q-.15.52-.3 1.35t-.3 1.68c-.1.58-.18 1.13-.23 1.65s-.07 1-.07 1.32a4.56 4.56 0 002 4.08 8.37 8.37 0 004.8 1.32 11.76 11.76 0 005-1 14.23 14.23 0 004.09-2.82 16.79 16.79 0 003-4.05 17.54 17.54 0 001.76-4.68l4.5-21.45h6.38l-8.18 38.77zM2073.52 179.34l-1.2 5.85h.15a15.11 15.11 0 016.07-5.07 18.39 18.39 0 017.73-1.68q5.47 0 8.14 2.4t2.66 7.57a23.49 23.49 0 01-.3 3.3c-.2 1.35-.48 2.78-.83 4.28l-4.72 22.12h-6.38l4.95-22.65c.05-.4.13-.86.23-1.39s.2-1.07.3-1.65.19-1.12.26-1.65a8.72 8.72 0 00.11-1.31 4.59 4.59 0 00-2-4.09 8.44 8.44 0 00-4.8-1.31 11.7 11.7 0 00-5.21 1.28 14.86 14.86 0 00-4.39 3.22 10.53 10.53 0 00-2.7 3.64 26.76 26.76 0 00-1.57 4.46l-4.5 21.45h-6.3l8.1-38.77zM2115.37 179.34l-8.1 38.77H2101l8-38.77zm-4.95-7l1.65-7.8h6.45l-1.65 7.8zM2146.94 186.05a8.54 8.54 0 00-6-2 12.6 12.6 0 00-6.49 1.65 15.46 15.46 0 00-4.72 4.28 19.2 19.2 0 00-2.89 5.88 22.39 22.39 0 00-1 6.42 18.44 18.44 0 00.48 4.27 9.62 9.62 0 001.62 3.53 8 8 0 003 2.4 10.26 10.26 0 004.54.9 11.49 11.49 0 007.05-2.18 12.45 12.45 0 004.27-5.77h6.38a17.68 17.68 0 01-6.3 10.05 18.39 18.39 0 01-11.4 3.45q-7.95 0-12-4.35t-4-12.3a28.61 28.61 0 011.39-8.93 23.07 23.07 0 014.12-7.61 19.9 19.9 0 0115.94-7.31q6.6 0 10.46 3.18t4.09 10h-6.37a7.19 7.19 0 00-2.17-5.56zM2164.15 185.45a14.24 14.24 0 013.79-3.94 15.83 15.83 0 015.1-2.32 23.22 23.22 0 015.93-.75 31.06 31.06 0 015.4.45 13.85 13.85 0 014.5 1.57 8.63 8.63 0 013.11 3 9.22 9.22 0 011.16 4.84 17.3 17.3 0 01-.41 3.56c-.28 1.27-.54 2.44-.79 3.49l-2.47 10.65c-.15.8-.37 1.7-.64 2.7a10.55 10.55 0 00-.41 2.85 2.64 2.64 0 00.52 1.88 1.82 1.82 0 001.35.52 3.07 3.07 0 001-.19l1-.33-1 4.72a12.51 12.51 0 01-1.91.56 9.06 9.06 0 01-2 .27 5.21 5.21 0 01-4-1.43 4.69 4.69 0 01-1-4l-.15-.15a13.38 13.38 0 01-5 4.12 18.69 18.69 0 01-7.95 1.43 17.8 17.8 0 01-4.61-.57 9.12 9.12 0 01-6.23-5.25 12.26 12.26 0 01-.93-5.06 10.77 10.77 0 011.83-6.67 11.63 11.63 0 014.69-3.64 23.14 23.14 0 016.3-1.69q3.45-.45 6.68-.75c1.7-.15 3.16-.31 4.38-.49a9.83 9.83 0 003-.86 3.77 3.77 0 001.76-1.72 6.91 6.91 0 00.57-3.08 4.07 4.07 0 00-.75-2.55 5.43 5.43 0 00-1.88-1.54 8.88 8.88 0 00-2.51-.78 16.68 16.68 0 00-2.66-.23 17.18 17.18 0 00-3.57.38 10.32 10.32 0 00-3.18 1.23 8.35 8.35 0 00-2.4 2.18 7.14 7.14 0 00-1.28 3.19h-6.37a13.58 13.58 0 012.03-5.6zM2166 212a8.89 8.89 0 004.84 1.35q7.58 0 10.88-5.1a12.55 12.55 0 002.13-4.73q.57-2.55 1.24-5.25h-.15a8.76 8.76 0 01-3.41 1.39c-1.38.27-2.84.49-4.39.64s-3.11.33-4.69.56a18.16 18.16 0 00-4.23 1.09 7.88 7.88 0 00-3.08 2.13 6 6 0 00-1.27 3.87A4.48 4.48 0 002166 212zM2221.42 179.34l-1.2 5.62h-7.73l-4.8 22.8c-.05.45-.1.88-.15 1.28a10.24 10.24 0 00-.07 1.27 2.07 2.07 0 001.16 2.06 6 6 0 002.66.57 9.59 9.59 0 001.88-.19 17.19 17.19 0 001.8-.49l-1.13 5.85c-.75.1-1.5.19-2.25.26a21.2 21.2 0 01-2.25.12 19.92 19.92 0 01-3.37-.27 7.54 7.54 0 01-2.74-1 5.54 5.54 0 01-1.88-1.91 6 6 0 01-.71-3.08 11.27 11.27 0 01.11-1.57c.08-.5.16-1.05.27-1.65l5.1-24.08h-6.53l1.2-5.62h6.53l2.4-11.48h6.37l-2.4 11.48zM2234.84 179.34l-8.1 38.77h-6.3l8-38.77zm-5-7l1.65-7.8h6.51l-1.65 7.8zM2240.13 193.66a23.62 23.62 0 014.27-7.8 21.24 21.24 0 016.83-5.4 19.92 19.92 0 019.11-2q7.88 0 12 4.08t4.12 12a29.66 29.66 0 01-1.42 9.15 23.82 23.82 0 01-4.2 7.83 20.66 20.66 0 01-6.75 5.44 19.74 19.74 0 01-9.08 2 18.76 18.76 0 01-6.86-1.2 14.21 14.21 0 01-8.36-8.44 18.17 18.17 0 01-1.13-6.49 28.83 28.83 0 011.47-9.17zm7.61 16.8q2.7 2.92 8 2.93a10.8 10.8 0 006.19-1.8 16.76 16.76 0 004.5-4.54 21.62 21.62 0 002.77-6 22 22 0 00.94-6.08 14.94 14.94 0 00-.6-4.27 9 9 0 00-5.06-5.82 11.08 11.08 0 00-4.54-.86 11.59 11.59 0 00-6.45 1.8 16.35 16.35 0 00-4.65 4.54 20.36 20.36 0 00-2.81 6 22.87 22.87 0 00-.94 6.3 10.93 10.93 0 002.65 7.8zM2294.39 179.34l-1.2 5.85h.15a15.11 15.11 0 016.07-5.07 18.39 18.39 0 017.73-1.68q5.47 0 8.13 2.4t2.67 7.57a23.49 23.49 0 01-.3 3.3c-.2 1.35-.48 2.78-.83 4.28l-4.72 22.12h-6.38l4.95-22.65c.05-.4.13-.86.23-1.39s.2-1.07.3-1.65.18-1.12.26-1.65a10.28 10.28 0 00.11-1.31 4.59 4.59 0 00-1.95-4.09 8.44 8.44 0 00-4.8-1.31 11.67 11.67 0 00-5.21 1.28 14.73 14.73 0 00-4.39 3.22 10.53 10.53 0 00-2.7 3.64 26.76 26.76 0 00-1.57 4.46l-4.5 21.45h-6.3l8.1-38.77zM2346.51 185.75a9.73 9.73 0 00-5.77-1.69 19.79 19.79 0 00-2.93.23 9.32 9.32 0 00-2.66.78 5.5 5.5 0 00-1.91 1.5 3.8 3.8 0 00-.75 2.44 3.38 3.38 0 00.86 2.33 8.89 8.89 0 002.32 1.8 25 25 0 003.31 1.53l3.71 1.47c1.3.55 2.56 1.15 3.79 1.8a17.25 17.25 0 013.26 2.21 10.15 10.15 0 012.32 2.92 8.27 8.27 0 01.9 3.94 10.2 10.2 0 01-1.42 5.51 11.57 11.57 0 01-3.68 3.72 16.13 16.13 0 01-5.06 2.06 25.85 25.85 0 01-5.66.64 28.87 28.87 0 01-6.23-.64 13.14 13.14 0 01-4.91-2.14 10.36 10.36 0 01-3.26-4 14.5 14.5 0 01-1.2-6.26h6.3a6.39 6.39 0 00.64 3.56 6 6 0 002.17 2.32 9.61 9.61 0 003.22 1.24 19.39 19.39 0 003.87.38 16.8 16.8 0 003.15-.3 9.28 9.28 0 002.85-1 6.08 6.08 0 002.06-1.83 4.77 4.77 0 00.79-2.78 3.56 3.56 0 00-.9-2.44 9.46 9.46 0 00-2.33-1.83 23.08 23.08 0 00-3.26-1.54c-1.23-.48-2.46-1-3.71-1.54s-2.57-1.05-3.79-1.65a15.48 15.48 0 01-3.3-2.14 9.3 9.3 0 01-2.32-2.88 8.1 8.1 0 01-.87-3.83 9.23 9.23 0 011.24-4.8 10.87 10.87 0 013.26-3.49 16.05 16.05 0 014.62-2.13 18.82 18.82 0 015.28-.75 22.78 22.78 0 015.33.63 13.65 13.65 0 014.68 2.1 11 11 0 013.34 3.83 11.93 11.93 0 011.28 5.74h-6.38a5.38 5.38 0 00-2.25-5.02z"/></g></g></svg>